<svg width="52" height="53" viewBox="0 0 52 53" fill="none" xmlns="http://www.w3.org/2000/svg">
<rect width="52" height="53" fill="white"/>
<path d="M25.9983 0.000437592C25.1218 0.000437592 24.2561 0.133557 23.4271 0.34523C22.9424 0.470525 22.4749 0.635077 22.0074 0.82794C21.8278 0.902989 21.644 0.950057 21.4668 1.03482C21.3932 1.06975 21.3369 1.13619 21.264 1.17273C20.8242 1.39468 20.3937 1.65167 19.979 1.93128C19.9206 1.96967 19.8338 1.96082 19.776 2.00024C19.6542 2.0855 19.5574 2.18602 19.438 2.27596C19.0984 2.52443 18.7419 2.7526 18.4234 3.03461C18.1329 3.30096 17.8836 3.63571 17.6118 3.93096C16.6917 4.89285 15.8942 5.91057 15.2445 7.10328C14.129 9.09679 13.2962 11.3412 12.9452 13.6542C12.7757 13.6178 12.6203 13.6048 12.4716 13.6542C11.3352 14.0316 11.0551 16.2327 11.7953 18.5502C12.2297 19.9101 12.9523 20.9808 13.689 21.5844C14.6788 25.5074 16.7746 28.7777 19.5055 30.8255V33.1005L17.3412 35.3072L13.0127 37.5139C9.51244 39.2814 6.0256 41.0556 2.52944 42.8231C0.592145 44.0147 -0.157491 46.3538 0.0271205 48.5473C0.117292 49.9286 -0.372143 51.6962 0.973986 52.6164C2.25285 53.2872 3.77866 52.8503 5.16725 52.9606C9.22871 52.9584 13.2798 52.9606 17.3412 52.9606C23.1177 52.9628 28.8789 52.9606 34.6554 52.9606C39.7782 52.9606 44.8858 52.9694 50.0086 52.9606C51.6708 52.8414 52.1318 51.0518 51.9695 49.6506C51.9998 47.594 52.1188 45.2902 50.5497 43.7191C49.2685 42.3906 47.4462 41.8654 45.8836 40.9607C43.5873 39.8022 41.278 38.6724 38.9839 37.5139L34.6554 35.3072L32.4911 33.1005V30.8255C35.2224 28.7777 37.3174 25.5074 38.3086 21.5844C39.0445 20.9806 39.7673 19.9099 40.2002 18.5502C40.9404 16.2327 40.6612 14.0316 39.5249 13.6542C39.3756 13.6048 39.222 13.6178 39.051 13.6542C38.7004 11.3412 37.8671 9.09679 36.7525 7.10328C36.1032 5.91057 35.3046 4.89285 34.3848 3.93096C34.1121 3.63571 33.8632 3.30096 33.5732 3.03461C33.5602 3.02248 33.5191 3.04675 33.5061 3.03461C32.6577 2.2625 31.7163 1.66882 30.7337 1.17273C30.4848 1.04867 30.2424 0.933221 29.9892 0.82794C29.8074 0.752891 29.6321 0.686139 29.4481 0.621064C28.8962 0.425818 28.3314 0.238074 27.7557 0.138355C27.7124 0.130841 27.6648 0.145301 27.6215 0.138355C27.0826 0.0519767 26.5502 -0.00563076 25.9983 0.000437592Z" fill="#34495E"/>
<path d="M0.0272827 50.754C0.0844604 51.416 0.301084 52.0779 0.974148 52.5192C2.25301 53.1812 3.77882 52.74 5.16741 52.9607H17.3414H34.6555H50.0088C51.2554 52.74 51.8311 51.8574 51.9696 50.754H0.0272827Z" fill="#2C3E50"/>
</svg>
